<svg width="18" height="18" viewBox="0 0 18 18" fill="none" xmlns="http://www.w3.org/2000/svg">
<path d="M6.75 3.32922L4.5 1.82922L2.25 3.32922V14.5792C2.25 15.8219 3.25736 16.8292 4.5 16.8292H15C16.2427 16.8292 17.25 15.8219 17.25 14.5792V12.3292H15.75V3.32922L13.5 1.82922L11.25 3.32922L9 1.82922L6.75 3.32922ZM14.25 12.3292H5.25V14.5792C5.25 14.9934 4.91421 15.3292 4.5 15.3292C4.08579 15.3292 3.75 14.9934 3.75 14.5792V4.132L4.5 3.632L6.75 5.132L9 3.632L11.25 5.132L13.5 3.632L14.25 4.132V12.3292ZM15 15.3292H6.62197C6.70489 15.0946 6.75 14.8422 6.75 14.5792V13.8292H15.75V14.5792C15.75 14.9934 15.4142 15.3292 15 15.3292Z" fill="currentColor" fill-opacity="0.68"/>
</svg>
