<svg width="18" height="18" viewBox="0 0 18 18" fill="none" xmlns="http://www.w3.org/2000/svg">
<path d="M2.25 3.32959C2.25 2.91538 2.58579 2.57959 3 2.57959H7.5C7.91422 2.57959 8.25 2.91538 8.25 3.32959V7.82959C8.25 8.24381 7.91422 8.57959 7.5 8.57959H3C2.58579 8.57959 2.25 8.24381 2.25 7.82959V3.32959ZM2.25 10.8296C2.25 10.4154 2.58579 10.0796 3 10.0796H7.5C7.91422 10.0796 8.25 10.4154 8.25 10.8296V15.3296C8.25 15.7438 7.91422 16.0796 7.5 16.0796H3C2.58579 16.0796 2.25 15.7438 2.25 15.3296V10.8296ZM9.75 3.32959C9.75 2.91538 10.0858 2.57959 10.5 2.57959H15C15.4142 2.57959 15.75 2.91538 15.75 3.32959V7.82959C15.75 8.24381 15.4142 8.57959 15 8.57959H10.5C10.0858 8.57959 9.75 8.24381 9.75 7.82959V3.32959ZM9.75 10.8296C9.75 10.4154 10.0858 10.0796 10.5 10.0796H15C15.4142 10.0796 15.75 10.4154 15.75 10.8296V15.3296C15.75 15.7438 15.4142 16.0796 15 16.0796H10.5C10.0858 16.0796 9.75 15.7438 9.75 15.3296V10.8296ZM11.25 4.07959V7.07959H14.25V4.07959H11.25ZM11.25 11.5796V14.5796H14.25V11.5796H11.25ZM3.75 4.07959V7.07959H6.75V4.07959H3.75ZM3.75 11.5796V14.5796H6.75V11.5796H3.75Z" fill="currentColor" fill-opacity="0.68"/>
</svg>
