<svg width="18" height="18" viewBox="0 0 18 18" fill="none" xmlns="http://www.w3.org/2000/svg">
<path d="M6.75 13.0796C6.75 12.6651 6.58282 12.2913 6.31054 12.019C6.03828 11.7468 5.66442 11.5796 5.25 11.5796C4.42157 11.5796 3.75 12.2511 3.75 13.0796C3.75 13.908 4.42157 14.5796 5.25 14.5796C6.07843 14.5796 6.75 13.908 6.75 13.0796ZM14.25 13.0796C14.25 12.2511 13.5784 11.5796 12.75 11.5796C11.9216 11.5796 11.25 12.2511 11.25 13.0796C11.25 13.908 11.9216 14.5796 12.75 14.5796C13.5784 14.5796 14.25 13.908 14.25 13.0796ZM6.75 5.57959C6.75 4.75116 6.07843 4.07959 5.25 4.07959C4.42157 4.07959 3.75 4.75116 3.75 5.57959C3.75 6.40802 4.42157 7.07959 5.25 7.07959C6.07843 7.07959 6.75 6.40802 6.75 5.57959ZM14.25 5.57959C14.25 4.75116 13.5784 4.07959 12.75 4.07959C11.9216 4.07959 11.25 4.75116 11.25 5.57959C11.25 5.99401 11.4172 6.36787 11.6894 6.64013C11.9618 6.91241 12.3355 7.07959 12.75 7.07959C13.5784 7.07959 14.25 6.40802 14.25 5.57959ZM15.75 13.0796C15.75 14.7364 14.4068 16.0796 12.75 16.0796C11.0932 16.0796 9.75 14.7364 9.75 13.0796C9.75 11.4228 11.0932 10.0796 12.75 10.0796C14.4068 10.0796 15.75 11.4228 15.75 13.0796ZM8.25 5.57959C8.25 7.23644 6.90686 8.57959 5.25 8.57959C3.59314 8.57959 2.25 7.23644 2.25 5.57959C2.25 3.92273 3.59314 2.57959 5.25 2.57959C6.90686 2.57959 8.25 3.92273 8.25 5.57959ZM15.75 5.57959C15.75 7.23644 14.4068 8.57959 12.75 8.57959C12.1938 8.57959 11.6726 8.42749 11.2259 8.16356L7.83398 11.5554C8.0979 12.0021 8.25 12.5234 8.25 13.0796C8.25 14.7364 6.90686 16.0796 5.25 16.0796C3.59314 16.0796 2.25 14.7364 2.25 13.0796C2.25 11.4228 3.59314 10.0796 5.25 10.0796C5.80587 10.0796 6.32695 10.2312 6.77344 10.4949L10.1653 7.10303C9.90165 6.65654 9.75 6.13546 9.75 5.57959C9.75 3.92273 11.0932 2.57959 12.75 2.57959C14.4068 2.57959 15.75 3.92273 15.75 5.57959Z" fill="currentColor" fill-opacity="0.68"/>
</svg>
