<svg width="18" height="18" viewBox="0 0 18 18" fill="none" xmlns="http://www.w3.org/2000/svg">
<path d="M10.5004 3.65735C11.51 3.65735 12.3285 2.83887 12.3285 1.82922H13.1722C13.1722 2.83887 13.9907 3.65735 15.0004 3.65735V4.5011C13.9907 4.5011 13.1722 5.31958 13.1722 6.32922H12.3285C12.3285 5.31958 11.51 4.5011 10.5004 4.5011V3.65735ZM0.750366 8.57922C3.23565 8.57922 5.25037 6.56451 5.25037 4.07922H6.75037C6.75037 6.56451 8.76509 8.57922 11.2504 8.57922V10.0792C8.76509 10.0792 6.75037 12.0939 6.75037 14.5792H5.25037C5.25037 12.0939 3.23565 10.0792 0.750366 10.0792V8.57922ZM3.65737 9.32922C4.64074 9.87492 5.45469 10.6888 6.00037 11.6722C6.54604 10.6888 7.35999 9.87492 8.34337 9.32922C7.35999 8.78352 6.54604 7.96962 6.00037 6.98623C5.45469 7.96962 4.64074 8.78352 3.65737 9.32922ZM12.9379 10.8292C12.9379 12.1754 11.8465 13.2667 10.5004 13.2667V14.3917C11.8465 14.3917 12.9379 15.483 12.9379 16.8292H14.0629C14.0629 15.483 15.1542 14.3917 16.5004 14.3917V13.2667C15.1542 13.2667 14.0629 12.1754 14.0629 10.8292H12.9379Z" fill="currentColor" fill-opacity="0.68"/>
</svg>
