<svg preserveAspectRatio="none" overflow="visible" style="display: block;" width="16" height="16" viewBox="0 0 16 16" fill="none" xmlns="http://www.w3.org/2000/svg">
<g id="icons/16px/line/calendar-line">
<path id="Vector" d="M5.99967 0.959961V2.29329H9.99967V0.959961H11.333V2.29329H13.9997C14.3679 2.29329 14.6663 2.59177 14.6663 2.95996V13.6266C14.6663 13.9948 14.3679 14.2933 13.9997 14.2933H1.99967C1.63149 14.2933 1.33301 13.9948 1.33301 13.6266V2.95996C1.33301 2.59177 1.63149 2.29329 1.99967 2.29329H4.66634V0.959961H5.99967ZM13.333 7.62663H2.66634V12.96H13.333V7.62663ZM4.66634 3.62663H2.66634V6.29329H13.333V3.62663H11.333V4.95996H9.99967V3.62663H5.99967V4.95996H4.66634V3.62663Z" fill="#303032" fill-opacity="0.98"/>
</g>
</svg>
