<svg preserveAspectRatio="none" overflow="visible" style="display: block;" width="16" height="16" viewBox="0 0 16 16" fill="none" xmlns="http://www.w3.org/2000/svg">
<g id="icons/16px/line/exchange-funds-line">
<path id="Vector" d="M12.9195 10.3634C13.9509 7.921 13.0252 5.0358 10.6698 3.67593C8.96773 2.69324 6.94913 2.75536 5.35667 3.66333L4.6951 2.50546C6.68566 1.37052 9.20886 1.29286 11.3365 2.52123C14.3303 4.24968 15.4763 7.94946 14.0815 11.0343L14.976 11.5507L12.1993 13.0268L12.0893 9.88406L12.9195 10.3634ZM3.08673 6.22605C2.05541 8.66846 2.9811 11.5537 5.33647 12.9135C7.03853 13.8962 9.05706 13.8341 10.6495 12.9262L11.3111 14.0841C9.32053 15.2189 6.79739 15.2966 4.6698 14.0683C1.67604 12.3398 0.530037 8.64 1.92481 5.55521L1.03027 5.03875L3.80699 3.56268L3.91703 6.70542L3.08673 6.22605ZM8.94593 10.1803L7.06033 8.29473L5.17471 10.1803L4.2319 9.23753L7.06033 6.40912L8.94593 8.29473L10.8316 6.40912L11.7744 7.35193L8.94593 10.1803Z" fill="#303032" fill-opacity="0.98"/>
</g>
</svg>
