<svg preserveAspectRatio="none" overflow="visible" style="display: block;" width="16" height="16" viewBox="0 0 16 16" fill="none" xmlns="http://www.w3.org/2000/svg">
<g id="loop-left-fill">
<path id="Vector" d="M7.99967 2.95931C6.27267 2.95931 4.73705 3.77966 3.7615 5.05447L5.33301 6.62598H1.33301V2.62598L2.81209 4.10506C4.03341 2.59398 5.90339 1.62598 7.99967 1.62598C11.6815 1.62598 14.6663 4.61074 14.6663 8.29264H13.333C13.333 5.34712 10.9452 2.95931 7.99967 2.95931ZM2.66634 8.29264C2.66634 11.2382 5.05415 13.626 7.99967 13.626C9.72667 13.626 11.2623 12.8056 12.2379 11.5308L10.6663 9.95931H14.6663V13.9593L13.1873 12.4802C11.9659 13.9913 10.0959 14.9593 7.99967 14.9593C4.31777 14.9593 1.33301 11.9745 1.33301 8.29264H2.66634Z" fill="#303032" fill-opacity="0.98"/>
</g>
</svg>
