<svg width="74" height="14" viewBox="0 0 74 14" fill="none" xmlns="http://www.w3.org/2000/svg">
<path d="M32.8697 7.17188H28.7461V13.9976H32.8697V7.17188Z" fill="#1B1B1B"/>
<path d="M35.123 6.95879V7.11747C35.123 9.39066 35.8171 11.109 37.2048 12.2719C38.6058 13.4221 40.7669 13.9969 43.6881 13.9969H53.2103V10.3929H43.5688C42.0358 10.3929 40.9317 10.1574 40.2581 9.61537C39.5839 9.07331 39.2471 8.23436 39.2471 7.09751V6.93883C39.2471 5.78867 39.5778 4.94307 40.2386 4.40101C40.9127 3.84564 42.023 3.6066 43.5693 3.6066H53.2108V0H43.6886C37.9787 0 35.1236 2.31977 35.1236 6.95879H35.123Z" fill="#1B1B1B"/>
<path d="M32.8707 0H28.7461V2.67756H32.8707V0Z" fill="#1B1B1B"/>
<path d="M21.9783 7.12669V2.67091L13.2971 8.32905L0.522461 0V13.9985H4.64604V7.17327L13.3093 12.812L21.903 7.20449C21.9348 7.1835 21.9767 7.20603 21.9767 7.2439V13.9985H26.0983V7.17736H22.0295C22.0013 7.17736 21.9788 7.15484 21.9788 7.12669H21.9783Z" fill="#1B1B1B"/>
<path d="M66.263 3.60645H61.2069C57.0341 3.60645 54.9473 5.29816 54.9473 8.75529V8.87353C54.9473 10.5673 55.4545 11.848 56.4685 12.7146C57.4923 13.5714 59.0719 13.9999 61.2069 13.9999H66.263C68.3975 13.9999 69.972 13.5714 70.9865 12.7146C72.0103 11.848 72.5226 10.5673 72.5226 8.87353V8.75529C72.5226 5.29816 70.4358 3.60645 66.2636 3.60645H66.263ZM67.6451 10.3922H60.0935C59.2009 10.3922 58.4771 9.66794 58.4771 8.77525C58.4771 7.88205 59.2009 7.1767 60.0935 7.1767H67.6451C68.5373 7.1767 69.2605 7.88205 69.2605 8.77525C69.2605 9.66845 68.5373 10.3922 67.6451 10.3922Z" fill="#1B1B1B"/>
</svg>
