<svg width="14" height="14" viewBox="0 0 14 14" fill="none" xmlns="http://www.w3.org/2000/svg">
<path d="M8.84055 12.0251C9.02178 12.339 8.91426 12.7403 8.6004 12.9215L7.76562 13.4035C7.29195 13.6769 6.70808 13.6768 6.23438 13.4035L5.39898 12.9215C5.08502 12.7403 4.97742 12.3389 5.15868 12.025C5.33986 11.7112 5.74104 11.6037 6.05485 11.7848L6.89062 12.267C6.95823 12.3059 7.04181 12.306 7.10938 12.267L7.94423 11.785C8.25806 11.6038 8.65934 11.7113 8.84055 12.0251Z" fill="#303032" fill-opacity="0.98"/>
<path d="M2.60535 9.66678C2.6054 9.74476 2.64725 9.81738 2.71472 9.85647L3.54949 10.3384C3.86335 10.5196 3.97088 10.921 3.78965 11.2348C3.60844 11.5486 3.20715 11.6561 2.89333 11.4749L2.05847 10.9929C1.58491 10.7194 1.2929 10.2137 1.29285 9.66678V8.70205C1.29285 8.33962 1.58666 8.0458 1.9491 8.0458C2.31153 8.0458 2.60535 8.33962 2.60535 8.70205V9.66678Z" fill="#303032" fill-opacity="0.98"/>
<path d="M12.7063 9.66678C12.7062 10.2138 12.4144 10.7194 11.9407 10.9929L11.1058 11.4749C10.792 11.6561 10.3907 11.5486 10.2095 11.2348C10.0283 10.921 10.1358 10.5196 10.4497 10.3384L11.2844 9.85647C11.3521 9.81742 11.3937 9.74487 11.3938 9.66678V8.70205C11.3938 8.33962 11.6876 8.0458 12.05 8.0458C12.4125 8.0458 12.7063 8.33962 12.7063 8.70205V9.66678Z" fill="#303032" fill-opacity="0.98"/>
<path d="M2.8932 3.03678C3.2071 2.85555 3.60847 2.96309 3.78972 3.27697C3.97093 3.59079 3.86352 3.99208 3.54977 4.17341L2.71472 4.65603C2.6473 4.69505 2.60552 4.767 2.60535 4.84488V5.8096C2.60535 6.17204 2.31153 6.46585 1.9491 6.46585C1.58666 6.46585 1.29285 6.17204 1.29285 5.8096V4.84488C1.29302 4.29802 1.58487 3.79216 2.05847 3.5187L2.8932 3.03678Z" fill="#303032" fill-opacity="0.98"/>
<path d="M10.2094 3.27697C10.3907 2.96309 10.792 2.85555 11.1059 3.03678L11.9407 3.5187C12.4143 3.79215 12.7061 4.29801 12.7063 4.84488V5.8096C12.7063 6.17204 12.4125 6.46585 12.05 6.46585C11.6876 6.46585 11.3938 6.17204 11.3938 5.8096V4.84488C11.3936 4.76694 11.3519 4.69503 11.2844 4.65603L10.4494 4.17341C10.1356 3.99208 10.0282 3.59079 10.2094 3.27697Z" fill="#303032" fill-opacity="0.98"/>
<path d="M6.23438 1.10818C6.708 0.834874 7.292 0.834866 7.76562 1.10818L8.60039 1.59013C8.91428 1.77135 9.02188 2.1727 8.84073 2.48663C8.65947 2.80078 8.25777 2.90838 7.94375 2.72688L7.10938 2.24466C7.04187 2.20581 6.95815 2.20585 6.89062 2.24466L6.05534 2.72712C5.74132 2.9085 5.33973 2.80087 5.1585 2.48678C4.97732 2.17279 5.08499 1.77137 5.39899 1.59019L6.23438 1.10818Z" fill="#303032" fill-opacity="0.98"/>
</svg>
