<svg width="14" height="14" viewBox="0 0 14 14" fill="none" xmlns="http://www.w3.org/2000/svg">
<rect x="5.6875" y="5.94385" width="2.625" height="2.625" rx="1.3125" fill="#303032" fill-opacity="0.68"/>
<path d="M9.91631 2.38808L12.0519 3.59879C12.5179 3.86295 12.8076 4.35553 12.8121 4.89114L12.8318 7.25661L12.8121 9.62209C12.8076 10.1577 12.5179 10.6503 12.0519 10.9144L9.91631 12.1252L7.71917 13.3256C7.27097 13.5705 6.72896 13.5705 6.28076 13.3256L4.08362 12.1252L1.94804 10.9144C1.48208 10.6503 1.19234 10.1577 1.18786 9.62209L1.16809 7.25661L1.18786 4.89114C1.19234 4.35553 1.48208 3.86295 1.94804 3.59879L4.08362 2.38808L6.28076 1.18763C6.72896 0.942745 7.27097 0.942745 7.71917 1.18763L9.91631 2.38808ZM4.72106 3.43246L3.19916 4.29446C2.73276 4.55863 2.44277 5.05159 2.43846 5.58759L2.42497 7.26608L2.43841 8.92516C2.44275 9.46099 2.7326 9.95381 3.19878 10.218L4.71697 11.0784L6.28074 11.9326C6.72896 12.1775 7.27095 12.1774 7.71913 11.9325L9.28215 11.0784L10.8006 10.2179C11.2666 9.95374 11.5565 9.46114 11.561 8.92549L11.575 7.26608L11.5609 5.58711C11.5564 5.05137 11.2666 4.55869 10.8004 4.29458L9.27923 3.43267C9.279 3.43253 9.27873 3.43246 9.27846 3.43246C9.27819 3.43246 9.27793 3.43239 9.2777 3.43227L7.71942 2.58029C7.27109 2.33516 6.72882 2.33512 6.28045 2.58018L4.72106 3.43246Z" fill="#303032" fill-opacity="0.68"/>
</svg>
