<svg width="14" height="14" viewBox="0 0 14 14" fill="none" xmlns="http://www.w3.org/2000/svg">
<path fill-rule="evenodd" clip-rule="evenodd" d="M6.38053 0.904248C6.76496 0.686387 7.2358 0.686367 7.62022 0.904248L9.91631 2.20613L12.1911 3.5432C12.572 3.76717 12.807 4.17498 12.8106 4.61678L12.8318 7.25655L12.8106 9.8955C12.807 10.3373 12.572 10.7451 12.1911 10.9691L9.91631 12.307L7.62022 13.608C7.23578 13.8259 6.76497 13.8259 6.38053 13.608L4.08362 12.307L1.80962 10.9691C1.42878 10.7451 1.19293 10.3373 1.18937 9.8955L1.16809 7.25655L1.18937 4.61678C1.19294 4.17498 1.42878 3.76717 1.80962 3.5432L4.08362 2.20613L6.38053 0.904248ZM9.47199 5.07747C9.19435 4.86924 8.8006 4.92589 8.59234 5.20349L6.51309 7.975L5.3495 6.81222C5.10408 6.5668 4.70627 6.5668 4.46085 6.81222C4.21558 7.05766 4.21548 7.4555 4.46085 7.70087L6.13668 9.37671C6.2654 9.50534 6.44367 9.57198 6.62519 9.55919C6.80691 9.54627 6.97412 9.45454 7.08343 9.30879L9.59718 5.95712C9.80536 5.67947 9.74961 5.2857 9.47199 5.07747Z" fill="#668948"/>
</svg>
