<svg width="14" height="14" viewBox="0 0 14 14" fill="none" xmlns="http://www.w3.org/2000/svg">
<path d="M1.16638 7.25606C1.16638 10.4777 3.77805 13.0894 6.99971 13.0894C10.2213 13.0894 12.833 10.4777 12.833 7.25606C12.833 4.0344 10.2213 1.42273 6.99971 1.42273C3.77805 1.42273 1.16638 4.0344 1.16638 7.25606ZM11.6664 7.25606C11.6664 9.8334 9.57706 11.9227 6.99971 11.9227C4.42238 11.9227 2.33305 9.8334 2.33305 7.25606C2.33305 4.67873 4.42238 2.5894 6.99971 2.5894C9.57706 2.5894 11.6664 4.67873 11.6664 7.25606ZM6.99971 7.25606V3.75606C8.93271 3.75606 10.4997 5.32307 10.4997 7.25606H6.99971Z" fill="#303032" fill-opacity="0.68"/>
</svg>
