<svg width="14" height="14" viewBox="0 0 14 14" fill="none" xmlns="http://www.w3.org/2000/svg">
<path d="M6.99971 1.42273C7.32189 1.42273 7.58305 1.6839 7.58305 2.00606V3.75606C7.58305 4.07823 7.32189 4.3394 6.99971 4.3394C6.67754 4.3394 6.41638 4.07823 6.41638 3.75606V2.00606C6.41638 1.6839 6.67754 1.42273 6.99971 1.42273ZM6.99971 10.1727C7.32189 10.1727 7.58305 10.4339 7.58305 10.7561V12.5061C7.58305 12.8282 7.32189 13.0894 6.99971 13.0894C6.67754 13.0894 6.41638 12.8282 6.41638 12.5061V10.7561C6.41638 10.4339 6.67754 10.1727 6.99971 10.1727ZM12.833 7.25606C12.833 7.57824 12.5719 7.8394 12.2497 7.8394H10.4997C10.1775 7.8394 9.91638 7.57824 9.91638 7.25606C9.91638 6.93389 10.1775 6.67273 10.4997 6.67273H12.2497C12.5719 6.67273 12.833 6.93389 12.833 7.25606ZM4.08305 7.25606C4.08305 7.57824 3.82188 7.8394 3.49972 7.8394H1.74972C1.42755 7.8394 1.16638 7.57824 1.16638 7.25606C1.16638 6.93389 1.42755 6.67273 1.74972 6.67273H3.49972C3.82188 6.67273 4.08305 6.93389 4.08305 7.25606ZM11.1245 11.3809C10.8967 11.6087 10.5274 11.6087 10.2996 11.3809L9.06209 10.1434C8.8343 9.9156 8.8343 9.54629 9.06209 9.31844C9.28994 9.09065 9.65925 9.09065 9.88704 9.31844L11.1245 10.5559C11.3523 10.7837 11.3523 11.153 11.1245 11.3809ZM4.93732 5.19367C4.70951 5.42147 4.34017 5.42147 4.11236 5.19367L2.87492 3.95623C2.64712 3.72842 2.64712 3.35908 2.87492 3.13127C3.10273 2.90347 3.47208 2.90347 3.69989 3.13127L4.93732 4.36871C5.16513 4.59652 5.16513 4.96586 4.93732 5.19367ZM2.87492 11.3809C2.64712 11.153 2.64712 10.7837 2.87492 10.5559L4.11236 9.31844C4.34017 9.09065 4.70951 9.09065 4.93732 9.31844C5.16513 9.54629 5.16513 9.9156 4.93732 10.1434L3.69989 11.3809C3.47208 11.6087 3.10273 11.6087 2.87492 11.3809ZM9.06209 5.19367C8.8343 4.96586 8.8343 4.59652 9.06209 4.36871L10.2996 3.13127C10.5274 2.90347 10.8967 2.90347 11.1245 3.13127C11.3523 3.35908 11.3523 3.72842 11.1245 3.95623L9.88704 5.19367C9.65925 5.42147 9.28994 5.42147 9.06209 5.19367Z" fill="#303032" fill-opacity="0.98"/>
</svg>
