<svg width="16" height="16" viewBox="0 0 16 16" fill="none" xmlns="http://www.w3.org/2000/svg">
<path d="M12.9205 10.3634C13.9518 7.921 13.0262 5.0358 10.6708 3.67593C8.9687 2.69324 6.9501 2.75536 5.35765 3.66333L4.69608 2.50546C6.68664 1.37052 9.20984 1.29286 11.3374 2.52123C14.3312 4.24968 15.4772 7.94946 14.0824 11.0343L14.977 11.5507L12.2002 13.0268L12.0902 9.88406L12.9205 10.3634ZM3.08771 6.22605C2.05639 8.66846 2.98208 11.5537 5.33744 12.9135C7.0395 13.8962 9.05804 13.8341 10.6504 12.9262L11.312 14.0841C9.3215 15.2189 6.79837 15.2966 4.67078 14.0683C1.67702 12.3398 0.531013 8.64 1.92578 5.55521L1.03125 5.03875L3.80796 3.56268L3.918 6.70542L3.08771 6.22605ZM8.9469 10.1803L7.0613 8.29473L5.17568 10.1803L4.23288 9.23753L7.0613 6.40912L8.9469 8.29473L10.8326 6.40912L11.7754 7.35193L8.9469 10.1803Z" fill="#303032" fill-opacity="0.98"/>
</svg>
