<svg width="16" height="16" viewBox="0 0 16 16" fill="none" xmlns="http://www.w3.org/2000/svg">
<path d="M3.33333 3.6263V12.9596H12.6667V3.6263H3.33333ZM2 3.6263C2 2.88992 2.59695 2.29297 3.33333 2.29297H12.6667C13.4031 2.29297 14 2.88992 14 3.6263V12.9596C14 13.696 13.4031 14.293 12.6667 14.293H3.33333C2.59695 14.293 2 13.696 2 12.9596V3.6263ZM10.3333 11.6263C10.8856 11.6263 11.3333 11.1786 11.3333 10.6263C11.3333 10.074 10.8856 9.6263 10.3333 9.6263C9.78107 9.6263 9.33333 10.074 9.33333 10.6263C9.33333 11.1786 9.78107 11.6263 10.3333 11.6263ZM6.66667 10.6263C6.66667 11.1786 6.21895 11.6263 5.66667 11.6263C5.11438 11.6263 4.66667 11.1786 4.66667 10.6263C4.66667 10.074 5.11438 9.6263 5.66667 9.6263C6.21895 9.6263 6.66667 10.074 6.66667 10.6263ZM5.66667 6.95964C6.21895 6.95964 6.66667 6.51192 6.66667 5.95964C6.66667 5.40735 6.21895 4.95964 5.66667 4.95964C5.11438 4.95964 4.66667 5.40735 4.66667 5.95964C4.66667 6.51192 5.11438 6.95964 5.66667 6.95964ZM11.3333 5.95964C11.3333 6.51192 10.8856 6.95964 10.3333 6.95964C9.78107 6.95964 9.33333 6.51192 9.33333 5.95964C9.33333 5.40735 9.78107 4.95964 10.3333 4.95964C10.8856 4.95964 11.3333 5.40735 11.3333 5.95964ZM8 9.29297C8.55227 9.29297 9 8.84524 9 8.29297C9 7.7407 8.55227 7.29297 8 7.29297C7.44773 7.29297 7 7.7407 7 8.29297C7 8.84524 7.44773 9.29297 8 9.29297Z" fill="#303032" fill-opacity="0.98"/>
</svg>
