<svg width="16" height="16" viewBox="0 0 16 16" fill="none" xmlns="http://www.w3.org/2000/svg">
<path d="M7.9987 1.62625C8.3669 1.62625 8.66536 1.92473 8.66536 2.29292C8.6653 2.66109 8.36683 2.95959 7.9987 2.95959C5.05318 2.95959 2.66536 5.3474 2.66536 8.29293C2.66539 11.2384 5.05319 13.6263 7.9987 13.6263C10.9442 13.6263 13.332 11.2384 13.332 8.29293C13.332 7.92473 13.6305 7.62626 13.9987 7.62626C14.3669 7.62626 14.6654 7.92473 14.6654 8.29293C14.6653 11.9748 11.6806 14.9596 7.9987 14.9596C4.31681 14.9596 1.33206 11.9748 1.33203 8.29293C1.33203 4.61102 4.3168 1.62625 7.9987 1.62625ZM7.9987 4.29292C8.3669 4.29292 8.66536 4.59139 8.66536 4.95959C8.6653 5.32775 8.36683 5.62625 7.9987 5.62625C6.52593 5.62625 5.33202 6.82016 5.33202 8.29293C5.33206 9.76566 6.52595 10.9596 7.9987 10.9596C9.47143 10.9596 10.6653 9.76566 10.6654 8.29293C10.6654 7.92473 10.9638 7.62626 11.332 7.62626C11.7002 7.62626 11.9987 7.92473 11.9987 8.29293C11.9986 10.5021 10.2078 12.2929 7.9987 12.2929C5.78957 12.2929 3.99872 10.5021 3.9987 8.29293C3.9987 6.08378 5.78956 4.29292 7.9987 4.29292ZM11.7695 1.69331C12.0299 1.43296 12.4525 1.43296 12.7129 1.69331C12.973 1.95363 12.973 2.37572 12.7129 2.63601L12.2409 3.10672L12.2415 3.10737C11.9812 3.36772 11.9812 3.78973 12.2415 4.05008C12.5019 4.31034 12.9239 4.3104 13.1842 4.05008L13.6556 3.57873C13.916 3.31852 14.338 3.31843 14.5983 3.57873C14.8586 3.83903 14.8585 4.26107 14.5983 4.52143L13.1842 5.93615C13.0593 6.06108 12.8896 6.13073 12.7129 6.13081H11.1035L8.47003 8.76426C8.2097 9.02453 7.78763 9.02453 7.52736 8.76426C7.26703 8.50393 7.2671 8.08193 7.52736 7.82159L10.1602 5.18875V3.57873C10.1602 3.40197 10.2305 3.23237 10.3554 3.10737L11.7695 1.69331Z" fill="#303032" fill-opacity="0.98"/>
</svg>
