<svg width="16" height="16" viewBox="0 0 16 16" fill="none" xmlns="http://www.w3.org/2000/svg">
<g clip-path="url(#clip0_266_89204)">
<path d="M1.33203 14.96C1.33203 12.0144 3.71984 9.62663 6.66536 9.62663C9.6109 9.62663 11.9987 12.0144 11.9987 14.96H10.6654C10.6654 12.7508 8.8745 10.96 6.66536 10.96C4.45622 10.96 2.66536 12.7508 2.66536 14.96H1.33203ZM6.66536 8.95996C4.45536 8.95996 2.66536 7.16996 2.66536 4.95996C2.66536 2.74996 4.45536 0.959961 6.66536 0.959961C8.87536 0.959961 10.6654 2.74996 10.6654 4.95996C10.6654 7.16996 8.87536 8.95996 6.66536 8.95996ZM6.66536 7.62663C8.1387 7.62663 9.33203 6.43329 9.33203 4.95996C9.33203 3.48663 8.1387 2.29329 6.66536 2.29329C5.19203 2.29329 3.9987 3.48663 3.9987 4.95996C3.9987 6.43329 5.19203 7.62663 6.66536 7.62663ZM12.1878 10.0952C14.0416 10.9307 15.332 12.7946 15.332 14.96H13.9987C13.9987 13.336 13.0309 11.938 11.6406 11.3114L12.1878 10.0952ZM11.7295 2.56877C13.0616 3.11798 13.9987 4.42903 13.9987 5.95996C13.9987 7.87343 12.5348 9.44343 10.6654 9.61169V8.26969C11.7965 8.10809 12.6654 7.13596 12.6654 5.95996C12.6654 5.03953 12.1331 4.24398 11.3594 3.86419L11.7295 2.56877Z" fill="#303032" fill-opacity="0.98"/>
</g>
<defs>
<clipPath id="clip0_266_89204">
<rect width="16" height="16" fill="white"/>
</clipPath>
</defs>
</svg>
