<svg width="16" height="16" viewBox="0 0 16 16" fill="none" xmlns="http://www.w3.org/2000/svg">
<path d="M2.33139 5.66923L3.18903 12.9592H12.8177L13.6753 5.66923L11.0021 7.45141L8.0034 3.25315L5.00463 7.45141L2.33139 5.66923ZM1.87051 3.75951L4.67003 5.62586L7.46087 1.71868C7.67487 1.41907 8.09127 1.34968 8.39087 1.56368C8.45073 1.60644 8.50307 1.65881 8.54587 1.71868L11.3367 5.62586L14.1362 3.75951C14.4426 3.55528 14.8565 3.63806 15.0607 3.94441C15.1485 4.07616 15.1866 4.23486 15.1681 4.39211L14.0727 13.7037C14.0331 14.0395 13.7486 14.2925 13.4105 14.2925H2.5962C2.25815 14.2925 1.9736 14.0395 1.9341 13.7037L0.838615 4.39211C0.795595 4.02644 1.05715 3.69513 1.42282 3.65211C1.58007 3.63361 1.73877 3.67169 1.87051 3.75951ZM8.0034 10.2925C7.267 10.2925 6.67007 9.69561 6.67007 8.95921C6.67007 8.22281 7.267 7.62587 8.0034 7.62587C8.73973 7.62587 9.33673 8.22281 9.33673 8.95921C9.33673 9.69561 8.73973 10.2925 8.0034 10.2925Z" fill="#303032" fill-opacity="0.98"/>
</svg>
